<?xml version="1.0" encoding="utf-8"?>
<!-- Generator: Adobe Illustrator 24.0.0, SVG Export Plug-In . SVG Version: 6.00 Build 0)  -->
<svg version="1.1" id="Layer_1" xmlns="http://www.w3.org/2000/svg" xmlns:xlink="http://www.w3.org/1999/xlink" x="0px" y="0px"
	 viewBox="0 0 80 80" style="enable-background:new 0 0 80 80;" xml:space="preserve">
<style type="text/css">
	.st0{fill-rule:evenodd;clip-rule:evenodd;fill:#FF0030;}
	.st1{fill-rule:evenodd;clip-rule:evenodd;fill:#FFFFFF;}
	.st2{fill-rule:evenodd;clip-rule:evenodd;fill:#2F8D1F;}
	.st3{fill-rule:evenodd;clip-rule:evenodd;fill:#B63F27;}
	.st4{display:none;fill-rule:evenodd;clip-rule:evenodd;fill:#F1C40F;}
	.st5{fill-rule:evenodd;clip-rule:evenodd;fill:#F1C40F;}
	.st6{fill-rule:evenodd;clip-rule:evenodd;fill:#F59213;}
	.st7{fill:#F59213;}
</style>
<g>
	<path class="st5" d="M54.5,80H19.6c-4.3,0-7.7-3.5-7.7-7.7V7.7c0-4.3,3.5-7.7,7.7-7.7h40.8c4.3,0,7.7,3.5,7.7,7.7v58.6"/>
	<path class="st6" d="M11.9,18.9V7.7c0-4.3,3.5-7.7,7.7-7.7h40.8c4.3,0,7.7,3.5,7.7,7.7v11.2H11.9z"/>
	<polygon class="st7" points="68.1,66.3 54.3,66.1 54.5,80 	"/>
	<rect x="18.3" y="29.7" class="st7" width="44.4" height="6.3"/>
	<rect x="18.3" y="41.9" class="st7" width="44.4" height="6.3"/>
	<rect x="18.3" y="54" class="st7" width="44.4" height="6.3"/>
</g>
</svg>
