<?xml version="1.0" encoding="utf-8"?>
<!-- Generator: Adobe Illustrator 24.0.0, SVG Export Plug-In . SVG Version: 6.00 Build 0)  -->
<svg version="1.1" id="Layer_1" xmlns="http://www.w3.org/2000/svg" xmlns:xlink="http://www.w3.org/1999/xlink" x="0px" y="0px"
	 viewBox="0 0 80 80" style="enable-background:new 0 0 80 80;" xml:space="preserve">
<style type="text/css">
	.st0{fill-rule:evenodd;clip-rule:evenodd;fill:#FF0030;}
	.st1{fill-rule:evenodd;clip-rule:evenodd;fill:#FFFFFF;}
	.st2{fill-rule:evenodd;clip-rule:evenodd;fill:#2F8D1F;}
	.st3{fill-rule:evenodd;clip-rule:evenodd;fill:#B63F27;}
	.st4{display:none;fill-rule:evenodd;clip-rule:evenodd;fill:#F1C40F;}
	.st5{fill-rule:evenodd;clip-rule:evenodd;fill:#F1C40F;}
	.st6{fill-rule:evenodd;clip-rule:evenodd;fill:#F59213;}
	.st7{fill:#F59213;}
</style>
<g>
	<path class="st5" d="M72.3,1.2H7.7C3.4,1.2,0,4.6,0,8.9v44.2c0,4.2,3.4,7.7,7.7,7.7h18.5v18l22.6-18h23.6c4.3,0,7.7-3.4,7.7-7.7
		V8.9C80,4.6,76.6,1.2,72.3,1.2z"/>
	<path class="st6" d="M0,13.8V8.9c0-4.3,3.4-7.7,7.7-7.7h64.6c4.3,0,7.7,3.4,7.7,7.7v4.9H0z"/>
	<rect x="11.3" y="26" class="st6" width="57.5" height="5.2"/>
	<rect x="11.3" y="40" class="st6" width="57.5" height="5.2"/>
</g>
</svg>
